{"title":"Armageddon(1998)MPEG-4[DaScubaDude]","uid":14398688,"size":1507773499,"categoryP":"video","categoryS":"movies","magnet":"?xt=urn:btih:7231550568dc10762f5f4c8800b887250a1d7929&amp;dn=Armageddon%281998%29MPEG-4%5BDaScubaDude%5D&amp;tr=udp%3A%2F%2Ftracker.leechers-paradise.org%3A6969&amp;tr=udp%3A%2F%2Fzer0day.ch%3A1337&amp;tr=udp%3A%2F%2Fopen.demonii.com%3A1337&amp;tr=udp%3A%2F%2Ftracker.coppersurfer.tk%3A6969&amp;tr=udp%3A%2F%2Fexodus.desync.com%3A6969","seeders":0,"leechers":0,"uploader":"dascuba","files":1,"time":1461368251,"description":"Armageddon (1998)\r\nPG-13 | 2h 31min | Action, Adventure, Sci-Fi | 1 July 1998 (USA)\r\nAfter discovering that an asteroid the size of Texas is going to impact Earth in less than a month, N.A.S.A. recruits a misfit team of deep core drillers to save the planet.\r\nDirector: Michael Bay\r\nWriters: Jonathan Hensleigh (screenplay), J.J. Abrams (screenplay) | \r\nStars: Bruce Willis, Billy Bob Thornton, Ben Affleck |\r\n\r\nGeneral\r\nComplete name                            : ArmagednARMAGEDN_Title1.mp4\r\nFormat                                   : MPEG-4\r\nFormat profile                           : Base Media\r\nCodec ID                                 : isom\r\nFile size                                : 1.40 GiB\r\nDuration                                 : 2h 30mn\r\nOverall bit rate mode                    : Variable\r\nOverall bit rate                         : 1 335 Kbps\r\nMovie name                               : ARMAGEDN\r\nGenre                                    : Action\r\nWriting application                      : Lavf54.6.100\r\n\r\nVideo\r\nID                                       : 1\r\nFormat                                   : AVC\r\nFormat/Info                              : Advanced Video Codec\r\nFormat profile                           :   \r\nFormat settings, CABAC                   : No\r\nFormat settings, ReFrames                : 6 frames\r\nCodec ID                                 : avc1\r\nCodec ID/Info                            : Advanced Video Coding\r\nDuration                                 : 2h 30mn\r\nBit rate                                 : 1 200 Kbps\r\nWidth                                    : 720 pixels\r\nHeight                                   : 540 pixels\r\nDisplay aspect ratio                     : 4:3\r\nFrame rate mode                          : Constant\r\nFrame rate                               : 29.970 fps\r\nColor space                              : YUV\r\nChroma subsampling                       : 4:2:0\r\nBit depth                                : 8 bits\r\nScan type                                : Progressive\r\nBits/(Pixel*Frame)                       : 0.103\r\nStream size                              : 1.26 GiB (90%)\r\n\r\nAudio\r\nID                                       : 2\r\nFormat                                   : AAC\r\nFormat/Info                              : Advanced Audio Codec\r\nFormat profile                           : LC\r\nCodec ID                                 : 40\r\nDuration                                 : 2h 30mn\r\nBit rate mode                            : Variable\r\nBit rate                                 : 128 Kbps\r\nMaximum bit rate                         : 139 Kbps\r\nChannel(s)                               : 2 channels\r\nChannel positions                        : Front: L R\r\nSampling rate                            : 44.1 KHz\r\nCompression mode                         : Lossy\r\nStream size                              : 138 MiB (10%)","torrent":{"xt":"urn:btih:7231550568dc10762f5f4c8800b887250a1d7929","amp;dn":"Armageddon%281998%29MPEG-4%5BDaScubaDude%5D","amp;tr":["udp%3A%2F%2Ftracker.leechers-paradise.org%3A6969","udp%3A%2F%2Fzer0day.ch%3A1337","udp%3A%2F%2Fopen.demonii.com%3A1337","udp%3A%2F%2Ftracker.coppersurfer.tk%3A6969","udp%3A%2F%2Fexodus.desync.com%3A6969"],"infoHash":"7231550568dc10762f5f4c8800b887250a1d7929","infoHashBuffer":{"type":"Buffer","data":[114,49,85,5,104,220,16,118,47,95,76,136,0,184,135,37,10,29,121,41]},"announce":[],"urlList":[]}}